<?xml version="1.0" encoding="UTF-8"?>
<svg width="1200pt" height="1200pt" version="1.1" viewBox="0 0 1200 1200" xmlns="http://www.w3.org/2000/svg">
 <path d="m600 76c-138.89 0.26562-272.02 55.555-370.23 153.77-98.215 98.211-153.5 231.34-153.77 370.23-0.48047 128.95 47.066 253.45 133.38 349.25l-121.12 109.5c-7.4922 6.8125-11.914 16.363-12.258 26.484-0.33984 10.121 3.4258 19.949 10.441 27.25 7.0195 7.3008 16.691 11.457 26.816 11.516h486.75c138.97 0 272.25-55.207 370.52-153.48 98.27-98.27 153.48-231.55 153.48-370.52s-55.207-272.25-153.48-370.52c-98.27-98.27-231.55-153.48-370.52-153.48zm-219.5 600c-20.156 0-39.488-8.0078-53.738-22.262-14.254-14.25-22.262-33.582-22.262-53.738s8.0078-39.488 22.262-53.738c14.25-14.254 33.582-22.262 53.738-22.262s39.488 8.0078 53.738 22.262c14.254 14.25 22.262 33.582 22.262 53.738s-8.0078 39.488-22.262 53.738c-14.25 14.254-33.582 22.262-53.738 22.262zm211.5 0c-20.156 0-39.488-8.0078-53.738-22.262-14.254-14.25-22.262-33.582-22.262-53.738s8.0078-39.488 22.262-53.738c14.25-14.254 33.582-22.262 53.738-22.262s39.488 8.0078 53.738 22.262c14.254 14.25 22.262 33.582 22.262 53.738s-8.0078 39.488-22.262 53.738c-14.25 14.254-33.582 22.262-53.738 22.262zm211.5 0c-20.156 0-39.488-8.0078-53.738-22.262-14.254-14.25-22.262-33.582-22.262-53.738s8.0078-39.488 22.262-53.738c14.25-14.254 33.582-22.262 53.738-22.262s39.488 8.0078 53.738 22.262c14.254 14.25 22.262 33.582 22.262 53.738-0.03125 20.145-8.0508 39.457-22.297 53.703s-33.559 22.266-53.703 22.297z"/>
</svg>
